<svg width="1024" height="1024" viewBox="0 0 1024 1024" fill="none" xmlns="http://www.w3.org/2000/svg">
<rect width="1024" height="1024" fill="#124734"/>
<path d="M853.255 476.758C868.509 476.758 880.578 489.501 879.796 504.693C878.455 530.736 873.314 570.301 855.49 602.633C839.231 633.573 816.77 656.945 787.994 672.804C759.219 688.664 726.142 696.566 688.65 696.566C660.769 696.566 634.788 691.502 610.706 681.374C586.624 671.246 565.616 657.279 547.736 639.527C529.856 621.72 515.888 601.075 505.718 577.647C495.549 554.164 490.465 528.733 490.465 501.354C490.465 473.975 495.605 448.043 505.998 424.783C516.335 401.522 530.806 381.044 549.412 363.459C567.962 345.819 589.53 332.074 613.947 322.113C638.42 312.208 664.736 307.199 692.953 307.199C725.415 307.199 755.085 313.154 781.848 325.062C793.303 330.182 803.919 336.08 813.697 342.758C834.035 356.726 836.27 385.829 818.837 403.247C804.813 417.215 782.463 419.385 766.651 407.476C760.784 403.08 754.526 399.24 747.877 396.069C731.282 388.055 712.788 384.049 692.45 384.049C670.324 384.049 650.488 388.946 633 398.74C615.511 408.534 601.822 422.167 592.044 439.808C582.21 457.392 577.349 477.926 577.349 501.465C577.349 525.004 582.154 544.982 591.82 562.789C601.431 580.596 614.673 594.508 631.435 604.636C648.253 614.764 667.53 619.828 689.265 619.828C711 619.828 729.718 615.654 745.251 607.307C760.784 598.96 772.741 586.773 781.122 570.747C783.692 565.794 785.927 560.507 787.715 554.887C788.553 552.216 786.653 549.489 783.86 549.434L716.587 548.376C696.976 548.042 681.275 532.183 681.275 512.65C681.275 493.118 697.367 476.869 717.146 476.869H853.311L853.255 476.758Z" fill="#00AC69"/>
<path d="M343.102 619.764C365.484 619.764 384.972 614.8 401.675 604.816C418.378 594.888 431.407 581 440.817 563.207C450.226 545.415 454.959 524.778 454.959 501.353C454.959 483.951 452.286 467.999 446.941 453.609C441.596 439.219 433.968 426.781 424.058 416.296C414.091 405.81 402.232 397.778 388.368 392.312C374.504 386.79 359.415 384.057 343.102 384.057C320.719 384.057 301.121 388.966 284.25 398.726C267.38 408.487 254.351 422.208 245.109 439.777C235.866 457.402 231.245 477.927 231.245 501.409C231.245 519.201 233.918 535.376 239.207 549.933C244.552 564.49 252.18 577.04 262.091 587.525C272.001 598.011 283.805 606.043 297.502 611.509C311.143 617.031 326.343 619.764 343.046 619.764M344.16 696.566C315.764 696.566 289.484 691.602 265.376 681.618C241.211 671.69 220.109 657.802 202.014 640.01C183.919 622.218 169.888 601.525 159.922 577.876C149.955 554.228 145 528.738 145 501.353C145 473.967 149.955 447.976 159.922 424.55C169.832 401.069 183.696 380.544 201.457 362.919C219.219 345.294 240.153 331.629 264.318 321.868C288.482 312.107 314.706 307.199 343.102 307.199C371.498 307.199 397.165 312.107 421.107 321.868C445.048 331.685 466.094 345.349 484.19 362.919C502.285 380.544 516.204 401.125 526.004 424.773C535.747 448.422 540.647 474.134 540.647 501.855C540.647 529.575 535.692 554.785 525.725 578.378C515.759 602.027 501.951 622.664 484.19 640.233C466.428 657.858 445.66 671.635 421.886 681.562C398.112 691.491 372.166 696.51 344.16 696.51" fill="white"/>
<path d="M249.59 748.025C249.59 776.451 226.521 799.519 198.096 799.519C169.67 799.519 146.602 776.451 146.602 748.025C146.602 719.6 169.67 696.531 198.096 696.531C226.521 696.531 249.59 719.6 249.59 748.025Z" fill="#00AC69"/>
</svg>
